<svg width="122" height="43" viewBox="0 0 122 43" fill="none" xmlns="http://www.w3.org/2000/svg">
<g filter="url(#filter0_d_101_229)">
<path d="M112.83 14V11.4683H112.046V10.908H114.245V11.4683H113.473V14H112.83ZM114.564 14V10.908H115.186L116.344 12.4436H116.054L117.179 10.908H117.801V14H117.158V11.6177L117.415 11.6758L116.224 13.2114H116.141L114.991 11.6758L115.207 11.6177V14H114.564Z" fill="black"/>
<path d="M50.5863 28.1301C51.6222 28.1301 52.5386 27.9408 53.3355 27.5623C54.1324 27.1639 54.74 26.5662 55.1583 25.7693V27.7715H59.3419V11.4555H54.8595V20.9881C54.8595 21.9244 54.5806 22.6815 54.0228 23.2592C53.465 23.817 52.7478 24.0959 51.8713 24.0959C50.9947 24.0959 50.2775 23.817 49.7197 23.2592C49.1619 22.6815 48.883 21.9244 48.883 20.9881V11.4555H44.4006V21.3467C44.4006 23.3787 44.9285 25.0223 45.9844 26.2773C47.0601 27.5125 48.5941 28.1301 50.5863 28.1301Z" fill="black"/>
<path d="M62.6181 9.99127H67.1005V5.50886H62.6181V9.99127ZM62.6181 27.7715H67.1005V11.4555H62.6181V27.7715Z" fill="black"/>
<path d="M72.3528 27.7715H76.8352V15.3403H80.3315V11.4555H76.8352V11.2165C76.8352 9.76217 77.6819 9.03502 79.3752 9.03502C79.6542 9.03502 79.9829 9.0649 80.3614 9.12467V5.29968C79.9032 5.20007 79.3752 5.15027 78.7776 5.15027C76.7456 5.15027 75.1618 5.6782 74.0262 6.73405C72.9106 7.78991 72.3528 9.28404 72.3528 11.2165V11.4555H69.6036V15.3403H72.3528V27.7715Z" fill="black"/>
<path d="M82.6371 27.7715H87.1195V18.986C87.1195 17.7707 87.4582 16.8344 88.1355 16.177C88.8129 15.4996 89.6994 15.161 90.7951 15.161H92.1996V11.2762H91.2433C90.2473 11.2762 89.3607 11.4655 88.5838 11.844C87.8268 12.2026 87.2391 12.8899 86.8207 13.9059V11.4555H82.6371V27.7715Z" fill="black"/>
<path d="M96.7042 34.4054C99.6924 34.4054 101.854 32.7021 103.189 29.2955L110.181 11.4555H105.37L101.515 21.9443L97.6604 11.4555H92.8493L99.2741 27.7715L98.9753 28.4588C98.7362 28.9967 98.4274 29.4748 98.0489 29.8932C97.6704 30.3115 97.0428 30.5207 96.1663 30.5207C95.4491 30.5207 94.7718 30.4211 94.1343 30.2219V33.8974C94.4729 34.0767 94.8614 34.2062 95.2997 34.2859C95.7579 34.3656 96.2261 34.4054 96.7042 34.4054Z" fill="black"/>
<path d="M30.3829 10.8852C30.1564 10.6651 29.8387 10.5651 29.5277 10.6163C29.2162 10.6672 28.9472 10.8628 28.8027 11.1434C28.3057 12.1089 27.6745 12.9961 26.9318 13.7805C27.0058 13.2139 27.0431 12.6439 27.0431 12.0724C27.0431 10.9759 26.8961 9.84742 26.6061 8.71805C25.6527 5.00853 23.1525 1.87144 19.7468 0.111205C19.4503 -0.0419942 19.097 -0.0366153 18.8053 0.125549C18.5136 0.287779 18.3226 0.585213 18.2964 0.917908C18.0309 4.28895 16.2945 7.35586 13.5298 9.33424C13.4932 9.3606 13.4569 9.38729 13.4206 9.41386C13.3453 9.46891 13.2744 9.52097 13.2081 9.56467C13.1978 9.57157 13.1875 9.57861 13.1774 9.58585C11.4386 10.8308 10.0039 12.4903 9.0282 14.3854C8.03675 16.3131 7.53406 18.3818 7.53406 20.5336C7.53406 21.6299 7.68101 22.7583 7.97088 23.8879C9.50055 29.8417 14.8585 33.9999 21.0004 33.9999C28.4253 33.9999 34.4659 27.9589 34.4659 20.5336C34.4659 16.872 33.0159 13.4454 30.3829 10.8852Z" fill="#FF5555"/>
<circle cx="20" cy="20" r="4" fill="white"/>
</g>
<defs>
<filter id="filter0_d_101_229" x="0" y="0" width="121.801" height="42.4054" filterUnits="userSpaceOnUse" color-interpolation-filters="sRGB">
<feFlood flood-opacity="0" result="BackgroundImageFix"/>
<feColorMatrix in="SourceAlpha" type="matrix" values="0 0 0 0 0 0 0 0 0 0 0 0 0 0 0 0 0 0 127 0" result="hardAlpha"/>
<feOffset dy="4"/>
<feGaussianBlur stdDeviation="2"/>
<feComposite in2="hardAlpha" operator="out"/>
<feColorMatrix type="matrix" values="0 0 0 0 0 0 0 0 0 0 0 0 0 0 0 0 0 0 0.25 0"/>
<feBlend mode="normal" in2="BackgroundImageFix" result="effect1_dropShadow_101_229"/>
<feBlend mode="normal" in="SourceGraphic" in2="effect1_dropShadow_101_229" result="shape"/>
</filter>
</defs>
</svg>
